# xmcd
#
# Track frame offsets:
#	150
#	14062
#	28507
#	42739
#	60440
#	77334
#	94512
#	111298
#	128563
#	146624
#	163887
#	184223
#	202326
#	224813
#	241894
#
# Disc length: 3424 seconds
#
# Revision: 1
# Processed by: cddbd v1.5.1PL0 Copyright (c) Steve Scherf et al.
# Submitted via: audiograbber 1.83.01
#
DISCID=dc0d5e0f
DTITLE=Dixie Chicks - Chartbuster
DYEAR=1900
DGENRE=Country
TTITLE0=Let Er Rip
TTITLE1=I Can Love You Better
TTITLE2=Theres Your Trouble
TTITLE3=Wide Open Spaces
TTITLE4=Tonight The Heartaches On Me
TTITLE5=You Were Mine
TTITLE6=Once You've Loved Somebody
TTITLE7=Loving Arms
TTITLE8=Ready To Run
TTITLE9=Sin Wagon
TTITLE10=Goodbye Earl
TTITLE11=Hello Mr Heartache
TTITLE12=Cowboy Take Me Away
TTITLE13=Without You
TTITLE14=Let Him Fly
EXTD=
EXTT0=
EXTT1=
EXTT2=
EXTT3=
EXTT4=
EXTT5=
EXTT6=
EXTT7=
EXTT8=
EXTT9=
EXTT10=
EXTT11=
EXTT12=
EXTT13=
EXTT14=
PLAYORDER=
